<?xml version="1.0" encoding="utf-8"?>
<!-- Generator: Adobe Illustrator 24.3.0, SVG Export Plug-In . SVG Version: 6.00 Build 0)  -->
<svg version="1.1" id="Слой_1" xmlns="http://www.w3.org/2000/svg" xmlns:xlink="http://www.w3.org/1999/xlink" x="0px" y="0px"
	 viewBox="0 0 900 182.532" style="enable-background:new 0 0 900 182.532;" xml:space="preserve">
<style type="text/css">
	.st0{fill:#FFFFFF;}
	.st1{fill:#F7B733;}
</style>
<g>
	<path class="st0" d="M259.54,141.307c-7.35-2.449-13.125-5.625-17.325-9.525l5.55-11.7c3.998,3.6,9.124,6.525,15.375,8.775
		c6.248,2.25,12.675,3.375,19.275,3.375c8.7,0,15.199-1.475,19.5-4.425c4.298-2.948,6.45-6.874,6.45-11.775
		c0-3.6-1.176-6.525-3.525-8.775c-2.351-2.25-5.25-3.975-8.7-5.175c-3.45-1.2-8.325-2.55-14.625-4.05
		c-7.901-1.898-14.276-3.799-19.125-5.7c-4.852-1.898-9-4.823-12.45-8.775c-3.45-3.949-5.175-9.274-5.175-15.975
		c0-5.599,1.474-10.65,4.425-15.15c2.948-4.5,7.425-8.1,13.425-10.8c6-2.7,13.449-4.05,22.35-4.05c6.199,0,12.3,0.802,18.3,2.4
		c6,1.601,11.149,3.9,15.45,6.9l-4.95,12c-4.402-2.798-9.101-4.924-14.1-6.375c-5.001-1.449-9.9-2.175-14.7-2.175
		c-8.5,0-14.875,1.552-19.125,4.65c-4.251,3.101-6.375,7.102-6.375,12c0,3.6,1.2,6.525,3.6,8.775s5.374,4,8.925,5.25
		c3.549,1.251,8.375,2.576,14.475,3.975c7.898,1.9,14.25,3.801,19.05,5.7c4.8,1.901,8.925,4.8,12.375,8.7
		c3.45,3.9,5.175,9.15,5.175,15.75c0,5.5-1.5,10.526-4.5,15.075c-3,4.552-7.552,8.152-13.65,10.8
		c-6.101,2.651-13.601,3.975-22.5,3.975C274.514,144.982,266.89,143.759,259.54,141.307z"/>
	<path class="st0" d="M442.312,143.782l-0.15-76.5l-37.95,63.75h-6.9l-37.95-63.3v76.05h-14.4v-105h12.3l43.8,73.8l43.2-73.8h12.3
		l0.15,105H442.312z"/>
	<path class="st0" d="M499.01,132.982c-7.8-8-11.7-19.5-11.7-34.5v-59.7h15v59.1c0,22.5,9.848,33.75,29.55,33.75
		c9.6,0,16.95-2.775,22.05-8.325c5.099-5.55,7.65-14.025,7.65-25.425v-59.1h14.551v59.7c0,15.101-3.9,26.625-11.701,34.575
		c-7.8,7.95-18.701,11.925-32.7,11.925C517.709,144.982,506.811,140.984,499.01,132.982z"/>
	<path class="st0" d="M677.059,143.782l-22.65-32.25c-2.801,0.202-5.001,0.3-6.6,0.3h-25.95v31.95h-15v-105h40.95
		c13.599,0,24.3,3.251,32.1,9.75c7.8,6.501,11.7,15.45,11.7,26.85c0,8.1-2.002,15-6,20.7c-4.001,5.7-9.701,9.851-17.1,12.45
		l24.899,35.25H677.059z M669.108,92.932c4.999-4.099,7.5-9.949,7.5-17.55c0-7.599-2.501-13.425-7.5-17.475
		c-5.002-4.05-12.251-6.075-21.75-6.075h-25.5v47.25h25.5C656.857,99.082,664.106,97.034,669.108,92.932z"/>
	<path class="st0" d="M730.907,51.832v36.6h52.65v12.9h-52.65v42.45h-15v-105h74.1v13.05H730.907z"/>
	<path class="st0" d="M818.433,141.307c-7.35-2.449-13.125-5.625-17.324-9.525l5.55-11.7c3.998,3.6,9.124,6.525,15.375,8.775
		c6.248,2.25,12.675,3.375,19.274,3.375c8.7,0,15.199-1.475,19.5-4.425c4.299-2.948,6.45-6.874,6.45-11.775
		c0-3.6-1.177-6.525-3.524-8.775c-2.352-2.25-5.25-3.975-8.7-5.175c-3.45-1.2-8.325-2.55-14.625-4.05
		c-7.901-1.898-14.276-3.799-19.125-5.7c-4.852-1.898-9-4.823-12.45-8.775c-3.45-3.949-5.175-9.274-5.175-15.975
		c0-5.599,1.474-10.65,4.425-15.15c2.948-4.5,7.425-8.1,13.425-10.8c6-2.7,13.448-4.05,22.351-4.05c6.199,0,12.3,0.802,18.3,2.4
		c6,1.601,11.149,3.9,15.45,6.9l-4.95,12c-4.401-2.798-9.101-4.924-14.101-6.375c-5.001-1.449-9.899-2.175-14.699-2.175
		c-8.501,0-14.876,1.552-19.125,4.65c-4.252,3.101-6.375,7.102-6.375,12c0,3.6,1.199,6.525,3.6,8.775s5.374,4,8.925,5.25
		c3.549,1.251,8.374,2.576,14.476,3.975c7.898,1.9,14.25,3.801,19.05,5.7c4.8,1.901,8.925,4.8,12.375,8.7s5.175,9.15,5.175,15.75
		c0,5.5-1.5,10.526-4.5,15.075c-3,4.552-7.552,8.152-13.65,10.8c-6.101,2.651-13.601,3.975-22.5,3.975
		C833.407,144.982,825.783,143.759,818.433,141.307z"/>
</g>
<g>
	<path class="st1" d="M95,0C42.533,0,0,41.496,0,92.683c0,42.026,28.674,77.513,67.974,88.871
		c-28.067-13.462-47.391-41.623-47.391-74.196c0-45.642,37.925-82.642,84.708-82.642c44.36,0,80.731,33.273,84.383,75.629
		c0.212-2.527,0.325-5.081,0.325-7.662C190,41.496,147.467,0,95,0z"/>
</g>
<path class="st1" d="M113.062,41.243c-2.559-0.312-5.098-0.467-7.616-0.499c29.063,5.399,49.346,31.963,45.808,60.996
	c-3.684,30.226-31.786,51.669-62.768,47.893c-29.543-3.6-51.018-28.833-49.757-57.376c-0.488,2.15-0.874,4.344-1.147,6.579
	c-4.43,36.348,22.182,69.495,59.439,74.035c37.257,4.54,71.05-21.245,75.48-57.593S150.319,45.784,113.062,41.243z"/>
</svg>
