<svg xmlns="http://www.w3.org/2000/svg" width="22" height="22" viewBox="0 0 22 22">
    <path fill="#898F9D" fill-rule="evenodd" d="M3 0h16a3 3 0 0 1 3 3v16a3 3 0 0 1-3 3H3a3 3 0 0 1-3-3V3a3 3 0 0 1 3-3zm13.615 2.933H5.385c-.947 0-1.718.76-1.718 1.7v11.154c0 .94.77 1.7 1.718 1.7h9.504l-.444-1.527 1.072.982 1.014.924 1.802 1.567v-14.8c0-.94-.77-1.7-1.718-1.7zM13.54 13.567s-.305-.357-.56-.672c1.11-.307 1.534-.987 1.534-.987a4.891 4.891 0 0 1-.974.49c-.424.173-.831.29-1.23.356-.813.15-1.559.108-2.195-.008a7.234 7.234 0 0 1-1.246-.357 5.019 5.019 0 0 1-.618-.282c-.026-.017-.051-.025-.077-.041-.017-.009-.025-.017-.034-.025a2.986 2.986 0 0 1-.237-.141s.407.663 1.483.978c-.254.315-.567.689-.567.689-1.874-.058-2.586-1.261-2.586-1.261 0-2.67 1.22-4.835 1.22-4.835 1.221-.896 2.383-.87 2.383-.87l.084.099c-1.525.43-2.229 1.086-2.229 1.086s.187-.1.5-.24c.907-.39 1.628-.498 1.924-.523.051-.008.094-.017.144-.017a7.328 7.328 0 0 1 1.713-.016c.805.091 1.67.323 2.55.796 0 0-.669-.622-2.11-1.053l.119-.133s1.161-.025 2.382.87c0 0 1.22 2.166 1.22 4.836 0 0-.72 1.203-2.593 1.26zM9.717 9.9a.914.914 0 0 0-.917.917.92.92 0 0 0 .917.916.914.914 0 0 0 .916-.916.909.909 0 0 0-.916-.917zm2.933 0a.914.914 0 0 0-.917.917.92.92 0 0 0 .917.916.914.914 0 0 0 .917-.916.914.914 0 0 0-.917-.917z"/>
</svg>
