<svg xmlns="http://www.w3.org/2000/svg" width="22" height="22" viewBox="0 0 22 22">
    <path fill="#898F9D" fill-rule="evenodd" d="M3 0h16a3 3 0 0 1 3 3v16a3 3 0 0 1-3 3H3a3 3 0 0 1-3-3V3a3 3 0 0 1 3-3zm8 2.933c-2.19 0-2.465.01-3.325.05-.86.038-1.445.174-1.958.374a3.95 3.95 0 0 0-1.43.93 3.96 3.96 0 0 0-.93 1.429c-.2.513-.336 1.1-.375 1.958-.039.86-.049 1.135-.049 3.326 0 2.19.01 2.465.05 3.325.039.86.175 1.445.374 1.958.206.53.482.98.93 1.43a3.95 3.95 0 0 0 1.429.93c.513.2 1.1.336 1.958.375.86.04 1.135.049 3.326.049 2.19 0 2.465-.01 3.325-.049.859-.04 1.446-.175 1.96-.375.53-.206.979-.482 1.427-.93a3.96 3.96 0 0 0 .931-1.43c.198-.513.335-1.099.375-1.957.039-.86.049-1.135.049-3.326 0-2.19-.01-2.466-.05-3.326-.04-.859-.176-1.445-.374-1.958a3.96 3.96 0 0 0-.93-1.429 3.942 3.942 0 0 0-1.43-.93c-.514-.2-1.1-.336-1.959-.375-.86-.04-1.134-.049-3.326-.049h.003zm-.723 1.454h.724c2.154 0 2.409.008 3.26.046.786.036 1.213.168 1.497.278.377.146.645.321.927.604.282.282.457.55.604.927.11.284.242.711.278 1.498.038.85.047 1.105.047 3.258s-.009 2.408-.047 3.259c-.036.786-.168 1.213-.278 1.497a2.494 2.494 0 0 1-.604.927c-.282.282-.55.457-.927.603-.284.111-.711.242-1.498.278-.85.039-1.105.047-3.26.047-2.153 0-2.409-.008-3.259-.047-.786-.036-1.213-.168-1.498-.278a2.499 2.499 0 0 1-.927-.603 2.5 2.5 0 0 1-.604-.927c-.11-.284-.242-.711-.278-1.498-.039-.85-.046-1.106-.046-3.26s.007-2.408.046-3.258c.036-.787.167-1.214.278-1.498a2.5 2.5 0 0 1 .604-.928c.282-.282.55-.457.927-.603.285-.111.712-.242 1.498-.279.744-.033 1.033-.043 2.536-.045v.002zm5.03 1.34a.968.968 0 1 0 0 1.936.968.968 0 0 0 0-1.937zM11 6.856a4.143 4.143 0 1 0 0 8.286 4.143 4.143 0 0 0 0-8.286zm0 1.454a2.689 2.689 0 1 1 0 5.378 2.689 2.689 0 0 1 0-5.378z"/>
</svg>
