<svg xmlns="http://www.w3.org/2000/svg" width="22" height="22" viewBox="0 0 22 22">
    <path fill="#898F9D" fill-rule="evenodd" d="M3 0h16a3 3 0 0 1 3 3v16a3 3 0 0 1-3 3H3a3 3 0 0 1-3-3V3a3 3 0 0 1 3-3zm8.093 7.928l.034.574-.58-.07c-2.11-.27-3.954-1.183-5.52-2.717l-.765-.76-.197.561c-.417 1.253-.15 2.576.72 3.466.463.491.359.562-.441.269-.279-.094-.522-.164-.545-.129-.082.082.197 1.148.417 1.569.302.585.916 1.159 1.589 1.499l.568.269-.673.011c-.649 0-.672.012-.603.258.232.761 1.148 1.569 2.169 1.92l.719.246-.626.375a6.529 6.529 0 0 1-3.108.866c-.522.012-.951.058-.951.093 0 .118 1.415.773 2.238 1.03 2.47.762 5.404.434 7.607-.866 1.566-.924 3.131-2.762 3.862-4.542.394-.948.788-2.68.788-3.512 0-.539.035-.609.685-1.253.382-.374.742-.784.811-.901.116-.223.105-.223-.487-.024-.985.352-1.125.305-.638-.222.36-.375.789-1.054.789-1.253 0-.035-.174.024-.371.129-.209.117-.673.293-1.02.398l-.627.2-.568-.387c-.313-.211-.754-.445-.986-.515-.591-.164-1.496-.14-2.029.046-1.45.527-2.366 1.885-2.261 3.372z"/>
</svg>
